<?xml version="1.0" encoding="UTF-8"?>
<svg width="65px" height="33px" viewBox="0 0 65 33" version="1.1" xmlns="http://www.w3.org/2000/svg" xmlns:xlink="http://www.w3.org/1999/xlink">
    <!-- Generator: Sketch 46.2 (44496) - http://www.bohemiancoding.com/sketch -->
    <title>crown</title>
    <desc>Created with Sketch.</desc>
    <defs></defs>
    <g id="方案修改" stroke="none" stroke-width="1" fill="none" fill-rule="evenodd">
        <g id="社区-发现" transform="translate(-33.000000, -723.000000)" fill-rule="nonzero">
            <g id="Group-2" transform="translate(0.000000, 215.000000)">
                <g id="Group" transform="translate(26.000000, 508.000000)">
                    <g id="crown" transform="translate(7.000000, 0.000000)">
                        <path d="M3.74939673,25.5064251 L3.42120654,31.8731211 L61.6172751,31.8731211 L61.291411,25.5064251 L63.6990695,15.6891622 C64.4042996,15.6390862 64.9577965,15.0438665 64.9577965,14.316308 C64.9577965,13.5562238 64.3535225,12.9403368 63.6082157,12.9403368 C62.8627096,12.9403368 62.258635,13.5564271 62.258635,14.316308 C62.258635,14.6837125 62.3993354,15.0170329 62.6294274,15.2636858 C62.8595194,15.5103388 60.5943558,23.4923409 60.0762168,23.7769405 C59.5625307,24.0490719 58.194407,23.7622361 57.9476329,20.9728891 C57.7113599,18.1857105 57.5396881,10.6466674 57.5396881,10.6466674 C58.2639928,10.4784825 58.7965542,9.82769815 58.7976176,9.0503347 C58.7535532,8.18203491 58.052045,7.49513347 57.1933538,7.49513347 C56.3343967,7.49513347 55.6334867,8.18230595 55.5892894,9.04694661 C55.5892229,9.6517885 55.9050511,10.1776201 56.3843763,10.4622875 C56.3843763,10.4622875 52.1129857,15.4749466 50.4923722,16.691 C48.8696984,17.9132197 46.2294223,17.9985996 44.0948569,17.2439363 C41.9562372,16.4998439 41.0206493,14.8620411 39.4915542,12.4087248 C37.9663139,9.9478193 33.3303119,4.59994251 33.3303119,4.59994251 C34.1822239,4.25910062 34.7900204,3.40455647 34.7900204,2.41089733 C34.7900204,1.14320945 33.8767638,0.0639671458 32.5291769,0.0620698152 C31.1857106,0.0641704312 30.2581646,1.14314168 30.2581646,2.41089733 C30.2581646,3.40679261 30.8657618,4.26099795 31.7160123,4.59994251 C31.7160123,4.59994251 27.0859254,9.94524435 25.5570297,12.4087248 C24.0238139,14.8615667 23.0940746,16.4992341 20.9636299,17.2454949 C18.8187628,17.9979897 16.1744325,17.9127454 14.5558129,16.6906612 C12.9331391,15.4724394 8.66998978,10.4619487 8.66998978,10.4619487 C9.14805215,10.1730801 9.46334867,9.65009446 9.46334867,9.05155441 C9.46334867,8.14917043 8.74622188,7.41774949 7.86087935,7.41774949 C6.97580266,7.41774949 6.25841002,8.14889938 6.25841002,9.05155441 C6.25841002,9.82912115 6.79110429,10.4797023 7.50484151,10.6446345 C8.21857873,10.8095667 7.33197342,18.185846 7.09563395,20.9732957 C6.85298057,23.7626427 5.48093558,24.0473778 4.9670501,23.777347 C4.45070552,23.4944415 2.42693252,15.2632793 2.42693252,15.2632793 C2.66331564,15.0054677 2.79519883,14.6659714 2.79606339,14.3130554 C2.79606339,13.551345 2.19345092,12.9372875 1.45053681,12.9372875 C0.650996933,12.9370164 0.046390593,13.5534456 0.046390593,14.3136653 C0.046390593,15.0570123 0.62394683,15.6628706 1.34612474,15.6896366 L3.74939673,25.5064251 Z" id="Shape" fill="#FFF142"></path>
                        <path d="M63.598911,9.93701643 L63.5968507,12.9370164 C62.8548671,12.9370164 62.2533845,13.550193 62.2533845,14.3067536 C62.2533845,14.6828316 62.3878374,15.0131704 62.6264366,15.2627372 C62.6264366,15.2627372 60.5915644,23.4919343 60.0740235,23.7768049 C59.5603374,24.0489363 58.1922137,23.7621006 57.9454397,20.9727536 C57.7091667,18.1855749 57.5374949,10.6465318 57.5374949,10.6465318 C58.2617996,10.478347 58.7943609,9.82756263 58.7954243,9.05019918 C58.7513599,8.18189938 58.0498517,7.49499795 57.1911605,7.49499795 C56.3322035,7.49499795 55.6312935,8.18217043 55.5870961,9.04681109 C55.5870297,9.65165298 55.9028579,10.1774846 56.382183,10.462152 C56.382183,10.462152 52.1107924,16.4748111 50.4901789,17.6908645 C48.8675051,18.9130842 46.227229,18.9984641 44.0926636,18.2438008 C41.954044,17.4997084 41.018456,15.8619055 39.4893609,13.4085893 C37.9641207,10.9476838 33.3281186,4.59980698 33.3281186,4.59980698 C34.1800307,4.25896509 34.7878272,3.40442094 34.7878272,2.41076181 C34.7878272,1.14307392 33.8745706,0.0638316222 32.5269836,0.0619342916 L32.5209356,31.8708172 L61.6178732,31.8708172 L61.2920092,25.5041211 L63.6996677,15.6868583 C64.4161299,15.6499281 64.9835174,15.0487454 64.9835174,14.3125811 C64.9835174,13.5524969 64.3792434,12.9366099 63.6339366,12.9366099 L63.598911,9.93701643 Z" id="Shape" fill="#FFC41F"></path>
                        <path d="M61.6151483,32.9415893 L3.41907975,32.9394887 C2.75798057,32.9394887 2.22242843,32.3932608 2.22242843,31.7194374 C2.22242843,31.0454107 2.75817996,30.499386 3.41907975,30.499386 L61.6151483,30.499386 C61.6298364,30.4991828 61.6471166,30.4990472 61.664729,30.4990472 C62.3266258,30.4990472 62.8635072,31.0464271 62.8635072,31.7212669 C62.8635072,32.3961068 62.3266258,32.9434867 61.664729,32.9434867 C61.647316,32.9434867 61.6300358,32.9433511 61.6127556,32.9430801 L61.6151483,32.9415893 Z" id="Shape" fill="#FF9E08"></path>
                        <path d="M10.932229,30.600961 L6.75887014,30.600961 C6.47955237,30.6009984 6.25312974,30.8318486 6.25309305,31.1166283 C6.26166731,31.3991299 6.4853851,31.6254965 6.76252556,31.6320924 L10.9320961,31.6362936 C11.0570749,31.6350052 11.1771596,31.5865824 11.2691922,31.5003634 C11.3790234,31.4059291 11.4422194,31.2667693 11.4417945,31.1202875 L11.4417945,31.1160862 C11.4362117,30.8326386 11.2109049,30.604078 10.9322955,30.601232 L10.932229,30.600961 Z M26.8812219,30.6051622 L14.1250051,30.6030616 C13.8475256,30.6051622 13.6213548,30.8316899 13.6173671,31.1165606 C13.6133793,31.4014312 13.8439366,31.6341253 14.1210174,31.6341253 L26.8753067,31.6402916 L26.8753732,31.6402916 C27.0074335,31.6402916 27.1285276,31.5894702 27.2205112,31.5065298 C27.3252744,31.4083129 27.3848261,31.2697964 27.3846728,31.124692 C27.3846728,30.8401602 27.160363,30.6087536 26.8820859,30.6051622 L26.8812219,30.6051622 Z" id="Shape" fill="#FFFFFF"></path>
                    </g>
                </g>
            </g>
        </g>
    </g>
</svg>